<mxfile host="app.diagrams.net" modified="2021-05-18T07:22:15.765Z" agent="5.0 (Windows NT 10.0; Win64; x64) AppleWebKit/537.36 (KHTML, like Gecko) Chrome/90.0.4430.85 Safari/537.36" etag="Qxlm5T_H0cyGEJOjAH-8" version="14.6.13" type="github">
  <diagram id="dG2FroSXp4ZMlqoeXKIu" name="Page-1">
    <mxGraphModel dx="1420" dy="762" grid="1" gridSize="10" guides="1" tooltips="1" connect="1" arrows="1" fold="1" page="1" pageScale="1" pageWidth="827" pageHeight="1169" math="0" shadow="0">
      <root>
        <mxCell id="0" />
        <mxCell id="1" parent="0" />
        <mxCell id="pwpYukKBLodl1liIoNOt-14" style="edgeStyle=none;rounded=0;orthogonalLoop=1;jettySize=auto;html=1;exitX=0.5;exitY=1;exitDx=0;exitDy=0;entryX=0.567;entryY=0.125;entryDx=0;entryDy=0;entryPerimeter=0;" edge="1" parent="1" source="pwpYukKBLodl1liIoNOt-1" target="pwpYukKBLodl1liIoNOt-3">
          <mxGeometry relative="1" as="geometry" />
        </mxCell>
        <mxCell id="pwpYukKBLodl1liIoNOt-1" value="" style="rounded=0;whiteSpace=wrap;html=1;fillColor=#dae8fc;strokeColor=#6c8ebf;" vertex="1" parent="1">
          <mxGeometry x="190" y="120" width="120" height="60" as="geometry" />
        </mxCell>
        <mxCell id="pwpYukKBLodl1liIoNOt-2" value="" style="rhombus;whiteSpace=wrap;html=1;" vertex="1" parent="1">
          <mxGeometry x="430" y="390" width="80" height="80" as="geometry" />
        </mxCell>
        <mxCell id="pwpYukKBLodl1liIoNOt-3" value="" style="ellipse;shape=cloud;whiteSpace=wrap;html=1;" vertex="1" parent="1">
          <mxGeometry x="220" y="330" width="120" height="80" as="geometry" />
        </mxCell>
        <mxCell id="pwpYukKBLodl1liIoNOt-4" value="" style="shape=tape;whiteSpace=wrap;html=1;" vertex="1" parent="1">
          <mxGeometry x="370" y="210" width="120" height="100" as="geometry" />
        </mxCell>
        <mxCell id="pwpYukKBLodl1liIoNOt-5" value="" style="rounded=1;whiteSpace=wrap;html=1;strokeWidth=2;fillWeight=4;hachureGap=8;hachureAngle=45;fillColor=#1ba1e2;sketch=1;" vertex="1" parent="1">
          <mxGeometry x="350" y="360" width="120" height="60" as="geometry" />
        </mxCell>
        <mxCell id="pwpYukKBLodl1liIoNOt-6" value="" style="rounded=1;whiteSpace=wrap;html=1;" vertex="1" parent="1">
          <mxGeometry x="330" y="480" width="120" height="60" as="geometry" />
        </mxCell>
        <mxCell id="pwpYukKBLodl1liIoNOt-7" value="" style="rounded=0;whiteSpace=wrap;html=1;" vertex="1" parent="1">
          <mxGeometry x="110" y="570" width="120" height="60" as="geometry" />
        </mxCell>
        <mxCell id="pwpYukKBLodl1liIoNOt-8" value="" style="rounded=0;whiteSpace=wrap;html=1;" vertex="1" parent="1">
          <mxGeometry x="230" y="570" width="120" height="60" as="geometry" />
        </mxCell>
        <mxCell id="pwpYukKBLodl1liIoNOt-9" value="" style="shape=table;html=1;whiteSpace=wrap;startSize=0;container=1;collapsible=0;childLayout=tableLayout;" vertex="1" parent="1">
          <mxGeometry x="360" y="350" width="60" height="80" as="geometry" />
        </mxCell>
        <mxCell id="pwpYukKBLodl1liIoNOt-10" value="" style="shape=partialRectangle;html=1;whiteSpace=wrap;collapsible=0;dropTarget=0;pointerEvents=0;fillColor=none;top=0;left=0;bottom=0;right=0;points=[[0,0.5],[1,0.5]];portConstraint=eastwest;" vertex="1" parent="pwpYukKBLodl1liIoNOt-9">
          <mxGeometry width="60" height="40" as="geometry" />
        </mxCell>
        <mxCell id="pwpYukKBLodl1liIoNOt-11" value="" style="shape=partialRectangle;html=1;whiteSpace=wrap;connectable=0;overflow=hidden;fillColor=none;top=0;left=0;bottom=0;right=0;" vertex="1" parent="pwpYukKBLodl1liIoNOt-10">
          <mxGeometry width="60" height="40" as="geometry" />
        </mxCell>
        <mxCell id="pwpYukKBLodl1liIoNOt-12" value="" style="shape=partialRectangle;html=1;whiteSpace=wrap;collapsible=0;dropTarget=0;pointerEvents=0;fillColor=none;top=0;left=0;bottom=0;right=0;points=[[0,0.5],[1,0.5]];portConstraint=eastwest;" vertex="1" parent="pwpYukKBLodl1liIoNOt-9">
          <mxGeometry y="40" width="60" height="40" as="geometry" />
        </mxCell>
        <mxCell id="pwpYukKBLodl1liIoNOt-13" value="" style="shape=partialRectangle;html=1;whiteSpace=wrap;connectable=0;overflow=hidden;fillColor=none;top=0;left=0;bottom=0;right=0;" vertex="1" parent="pwpYukKBLodl1liIoNOt-12">
          <mxGeometry width="60" height="40" as="geometry" />
        </mxCell>
      </root>
    </mxGraphModel>
  </diagram>
</mxfile>
